<svg preserveAspectRatio="none" width="100%" height="100%" overflow="visible" style="display: block;" viewBox="0 0 268 268" fill="none" xmlns="http://www.w3.org/2000/svg">
<g id="a-panda-logo-holding-a-bamboo-shoot-shaped-like-a- 1">
<path id="Vector" opacity="0.1" d="M43.1716 216.013C44.4603 217.797 45.6576 219.629 47.0827 221.312C52.3307 227.51 59.7247 233.206 67.916 234.499C74.6307 235.559 81.204 234.164 86.7189 230.127L89.1058 228.145C91.8018 228.663 94.5671 228.84 97.3023 229.021L104.284 229.406L108.505 229.469C109.402 229.469 110.457 229.354 111.327 229.555L111.38 231.022C111.589 233.997 112.215 236.325 114.552 238.341C116.311 239.859 118.281 240.511 120.602 240.31C122.994 240.103 124.912 238.925 126.413 237.097L127.411 235.819C133.919 236.005 140.366 235.894 146.782 234.682C149.979 234.078 153.146 233.263 156.062 231.787C156.995 231.314 157.98 230.722 158.772 230.04C159.279 229.605 159.936 228.808 160.497 228.5C160.665 228.407 161.357 228.453 161.581 228.453L165.167 228.451C170.374 228.448 175.671 228.56 180.864 228.197L183.247 229.932C189.22 233.742 197.253 235.078 204.151 233.555C210.412 232.173 216.019 228.319 220.102 223.424C221.901 221.266 223.384 218.925 224.885 216.559C228.065 217.532 231.236 218.509 234.214 220.015C235.569 220.701 237.01 221.505 238.002 222.683C238.641 223.443 239.155 224.457 239.044 225.476C238.863 227.139 237.491 228.329 236.236 229.276C233.771 231.134 230.757 232.268 227.856 233.238C222.229 235.121 216.359 236.34 210.538 237.454C186.202 242.112 161.489 243.734 136.739 243.795C113.462 243.851 90.2485 242.503 67.1882 239.28C59.1605 238.157 34.4527 233.9 29.8715 227.477C29.2544 226.612 28.9754 225.531 29.2039 224.485C29.4015 223.58 29.9367 222.822 30.5625 222.158C32.9056 219.675 36.8796 218.187 40.061 217.094C40.8899 216.809 42.3199 216.613 43.0116 216.132L43.1716 216.013Z" fill="var(--fill-0, #DFFBAC)"/>
<path id="Vector_2" d="M43.1716 216.013C39.2193 209.4 36.4778 200.934 38.4318 193.224C39.4083 189.372 41.953 185.804 45.3846 183.767C49.3662 181.403 54.2365 181.058 58.653 182.237C60.5607 182.747 62.2927 183.444 64.0305 184.372L66.2562 185.623C66.5716 185.81 66.9327 186.102 67.2942 186.132L67.9414 178.462C66.436 176.834 64.8733 175.056 63.6576 173.201C59.697 167.158 57.9003 160.077 58.1788 152.893C58.3447 148.614 59.2131 144.448 60.736 140.449C58.5695 140.507 56.408 140.566 54.2491 140.337C45.7715 139.437 37.7239 135.367 31.5544 129.54C27.4109 125.626 24.3265 121.029 21.5929 116.072C21.2109 115.38 20.3356 114.203 20.314 113.455C20.2991 112.94 20.4807 112.443 20.871 112.105C21.5971 111.477 22.9525 111.111 23.853 110.792C29.0209 108.962 34.4168 108.164 39.8846 108.775C42.5832 109.076 45.3624 109.588 47.9573 110.396C46.1499 107.656 44.1574 105.021 42.5811 102.135C36.1795 90.417 34.2328 77 36.9149 63.9345C37.4527 61.3131 38.2416 58.7577 39.0932 56.2237C39.3709 55.3977 39.6674 53.9834 40.3848 53.4631C40.8143 53.1517 41.3523 53.0172 41.875 53.12C43.3309 53.4071 44.8518 54.7293 46.1133 55.51C54.399 60.6376 62.4992 67.1112 67.6593 75.5059C68.7485 77.278 69.8116 79.1029 70.7316 80.969L71.5662 82.834C71.7277 83.2357 71.8565 83.7623 72.1205 84.0997C72.8083 79.8284 73.6736 75.6147 75.2038 71.5539C69.6957 68.9982 65.2774 64.493 63.1415 58.7556C60.7957 52.4552 61.0862 45.0371 63.9224 38.9474C66.7417 32.8933 71.8562 28.0351 78.1885 25.79C84.2289 23.6483 90.9394 24.0405 96.6967 26.8301C99.8399 28.3533 102.653 30.5769 104.776 33.3576L106.115 35.2184C106.3 35.4854 106.467 35.8288 106.743 36.0041C120.856 28.7383 136.977 27.1654 152.133 32.0514C155.411 33.1082 158.64 34.4974 161.671 36.1235C164.254 31.099 169.034 27.196 174.405 25.4819C180.429 23.5594 186.956 24.1895 192.548 27.1133C198.409 30.1777 203.034 35.6246 204.971 41.9608C207.044 48.7409 206.19 55.7848 202.856 62.0116C201.444 64.6477 199.23 67.2526 196.911 69.1511C195.669 70.1678 194.315 71.0417 192.992 71.9486C192.883 72.024 192.698 72.0459 192.663 72.1742C192.559 72.556 193.608 75.6354 193.791 76.3093L195.447 83.3001C195.697 84.5904 195.799 85.9762 196.138 87.2403C196.169 87.3573 196.197 87.4046 196.245 87.5041L199.625 81.6209C200.02 80.8716 200.542 80.0532 200.65 79.2066C200.708 78.7415 201.047 78.1555 201.356 77.8048C203.452 75.4216 206.139 73.3386 208.432 71.1425L219.062 61.1867C220.959 59.4136 222.878 57.3161 224.97 55.8037C225.695 55.2792 226.43 54.9057 227.344 55.0643C227.847 55.1517 228.337 55.4467 228.625 55.8738C229.214 56.7466 229.072 57.7878 228.845 58.7559L223.642 78.5811L221.586 85.7171C221.317 86.6059 221.108 87.6627 220.696 88.4858C220.339 89.1979 219.609 89.8543 219.081 90.455C218.329 91.3097 217.652 92.1923 217.039 93.1517L202.701 115.418C201.096 117.97 199.191 120.475 197.779 123.125C199.256 124.98 200.838 126.793 202.179 128.747C208.154 137.452 211.433 147.632 210.196 158.231C209.451 164.608 206.793 170.031 202.984 175.105L200.971 177.606C200.76 177.854 200.233 178.328 200.113 178.606C200.014 178.838 200.304 180.383 200.323 180.804L200.337 184.769C200.327 185.424 200.215 186.23 200.352 186.866C205.055 183.466 210.923 180.951 216.858 181.897C221.208 182.591 224.731 184.498 227.315 188.137C230.426 192.518 230.853 198.037 229.925 203.2C229.061 208.013 227.06 212.22 224.885 216.559C223.384 218.925 221.901 221.266 220.102 223.424C216.019 228.319 210.412 232.173 204.151 233.555C197.253 235.078 189.22 233.742 183.247 229.932L180.864 228.197C175.671 228.56 170.374 228.448 165.167 228.451L161.581 228.453C161.357 228.453 160.665 228.407 160.497 228.5C159.936 228.808 159.279 229.605 158.772 230.04C157.98 230.722 156.995 231.314 156.062 231.787C153.146 233.263 149.979 234.078 146.782 234.682C140.366 235.894 133.919 236.005 127.411 235.819L126.413 237.097C124.912 238.925 122.994 240.103 120.602 240.31C118.281 240.511 116.311 239.859 114.552 238.342C112.215 236.325 111.589 233.997 111.38 231.022L111.327 229.555C110.457 229.354 109.402 229.469 108.505 229.469L104.284 229.406L97.3023 229.021C94.5671 228.84 91.8018 228.663 89.1058 228.145L86.7189 230.127C81.204 234.164 74.6307 235.559 67.916 234.499C59.7247 233.206 52.3307 227.51 47.0827 221.312C45.6576 219.629 44.4603 217.797 43.1716 216.013Z" fill="var(--fill-0, #040404)"/>
<path id="Vector_3" d="M223.177 62.7471C223.355 63.7905 222.66 65.481 222.301 66.4766L222.134 66.5004L221.747 65.884L220.975 65.2931C221.266 64.5362 222.566 63.2956 223.177 62.7471Z" fill="var(--fill-0, #888789)"/>
<path id="Vector_4" d="M157.724 145.277L157.791 145.226C158.733 144.473 160.371 143.563 161.527 143.22L159.119 147.209C158.61 146.845 158.09 145.821 157.724 145.277Z" fill="var(--fill-0, #343535)"/>
<path id="Vector_5" d="M73.2909 193.152C72.9376 192.799 71.9551 192.022 71.8533 191.563C71.6871 190.813 71.741 182.565 72.0381 182.149C72.3623 182.251 72.6016 182.421 72.8774 182.611L72.9253 186.238L73.2386 191.348C73.2734 191.789 73.4835 192.761 73.2909 193.152Z" fill="var(--fill-0, #888789)"/>
<path id="Vector_6" d="M53.9839 124.143L63.901 128.261C64.7827 128.58 65.6501 128.96 66.5616 129.186C66.123 129.683 65.8026 130.267 65.4598 130.833L53.2938 125.197C53.6102 124.919 53.7827 124.511 53.9839 124.143Z" fill="var(--fill-0, #3F7F0A)"/>
<path id="Vector_7" d="M134.995 214.006C136.382 215.803 137.572 218.016 137.249 220.367C137.059 221.751 136.11 223.244 134.989 224.047L134.041 224.646C134.494 222.485 134.829 220.537 134.034 218.404C133.742 217.623 133.338 217.005 132.918 216.296C133.707 215.805 134.473 214.773 134.995 214.006Z" fill="var(--fill-0, #F1EAC3)"/>
<path id="Vector_8" d="M177.492 47.7734C179.151 48.2078 180.796 49.6258 182.156 50.6368C184.108 52.087 186.169 53.6311 188.438 54.5453C187.721 55.9194 186.832 56.8003 185.575 57.6888C184.603 56.7372 183.873 55.3347 183.022 54.2538L177.492 47.7734Z" fill="var(--fill-0, #EBAF4E)"/>
<path id="Vector_9" d="M132.918 216.296C131.75 214.856 130.373 213.587 128.656 212.842C126.176 211.766 123.78 212.025 121.326 213.005C121.676 212.194 122.016 211.467 122.656 210.835C123.715 209.791 124.98 209.46 126.434 209.513C129.768 209.635 132.781 211.658 134.995 214.006C134.473 214.773 133.707 215.805 132.918 216.296Z" fill="var(--fill-0, #F2F4E8)"/>
<path id="Vector_10" d="M80.6984 55.7597C81.1697 55.2577 81.5199 54.5576 81.9028 53.9826C82.5982 52.9376 83.3234 51.954 84.1879 51.0407C86.4546 48.6462 88.9085 47.0125 91.9258 45.7223C92.4857 45.4831 92.9245 45.1614 93.5566 45.1431C91.5607 46.9641 89.5895 48.8828 87.8624 50.9634L82.7358 57.7679C81.9816 57.1782 81.2673 56.5354 80.6984 55.7597Z" fill="var(--fill-0, #EBAF4E)"/>
<path id="Vector_11" d="M184.884 131.779C185.261 132.646 185.469 133.567 185.716 134.477C184.969 136.054 183.853 137.474 182.943 138.962C180.72 142.601 179.014 146.024 175.596 148.756C174.857 149.348 174.125 149.92 173.266 150.33C173.907 148.692 175.27 147.07 176.202 145.543L181.85 136.414C182.61 135.177 183.29 133.817 184.103 132.626C184.317 132.312 184.61 132.04 184.884 131.779Z" fill="var(--fill-0, #435F18)"/>
<path id="Vector_12" d="M212.457 80.1058C210.518 79.2686 207.905 79.5523 205.832 79.5484L214.413 71.3063C215.322 70.4309 216.241 69.2953 217.263 68.5706C217.556 69.2065 217.804 69.6475 218.321 70.1364L218.451 70.256L212.457 80.1058Z" fill="var(--fill-0, #B0DF29)"/>
<path id="Vector_13" d="M54.1491 118.072C58.1204 120.822 62.2969 123.804 65.626 127.32C65.9748 127.688 66.6404 128.256 66.7406 128.766L66.5616 129.186C65.6501 128.96 64.7827 128.58 63.901 128.261L53.9839 124.143L54.0591 123.793C54.4977 121.92 54.3537 119.971 54.1491 118.072Z" fill="var(--fill-0, #6F932D)"/>
<path id="Vector_14" d="M152.561 188.566C153.124 188.777 153.77 188.954 154.288 189.256L143.952 204.954L140.518 210.523C140.186 211.042 139.764 211.907 139.296 212.279L137.757 210.552C138.333 209.932 138.807 209.122 139.279 208.42L142.078 204.181L152.561 188.566Z" fill="var(--fill-0, #435F18)"/>
<path id="Vector_15" d="M218.451 70.256C219.536 70.6659 220.361 70.7865 221.516 70.6586L217.208 85.8443C215.767 83.9034 214.327 81.6542 212.457 80.1058L218.451 70.256Z" fill="var(--fill-0, #3F7F0A)"/>
<path id="Vector_16" d="M132.279 206.736C131.637 206.489 130.684 206.183 130.169 205.746L144.65 183.662C145.251 183.912 145.946 184.689 146.447 185.135C144.191 189.139 141.348 192.92 138.832 196.772L135.171 202.439C134.238 203.913 133.379 205.375 132.279 206.736Z" fill="var(--fill-0, #F2F4E8)"/>
<path id="Vector_17" d="M191.314 82.253C191.977 85.2201 192.431 88.1942 192.533 91.2354C192.557 91.9287 192.665 92.7987 192.505 93.47C192.199 94.7626 190.921 96.3303 190.23 97.4884L182.425 110.177C181.943 110.937 181.449 111.96 180.767 112.546C180.848 111.836 181.359 111.069 181.669 110.419L183.234 106.943L186.527 98.5827C187.841 94.9827 188.903 91.2438 189.897 87.5447C190.365 85.8068 190.692 83.9342 191.314 82.253Z" fill="var(--fill-0, #B6A988)"/>
<path id="Vector_18" d="M42.7026 202.721C42.3736 200.685 42.1828 198.765 42.395 196.702C42.7133 193.604 44.1886 190.392 46.6514 188.428C49.0738 186.495 52.0993 185.95 55.1297 186.301C62.5594 187.16 68.3748 192.306 72.8468 197.934C72.305 197.84 71.9541 197.405 71.5416 197.049L69.0312 194.972C64.9565 191.88 60.4693 189.158 55.3059 188.505C52.6274 188.166 49.9129 188.608 47.7574 190.302C44.7748 192.645 43.3391 196.719 42.9441 200.362L42.7026 202.721Z" fill="var(--fill-0, #888789)"/>
<path id="Vector_19" d="M128.358 217.797C129.419 218.868 130.104 219.985 130.12 221.545C130.128 222.303 129.985 223.125 129.677 223.819C129.073 225.179 128.04 226.495 127.24 227.763L124.439 232.178C123.857 233.091 123.273 234.133 122.499 234.896C121.876 235.511 120.832 235.954 119.951 235.935C118.913 235.913 117.931 235.452 117.229 234.696C116.242 233.634 115.729 231.964 115.813 230.527C115.826 230.308 115.862 230.114 115.93 229.905C115.913 230.283 115.82 230.644 116.007 230.979C116.753 231.008 117.415 230.934 118.144 230.77C122.009 229.901 124.574 226.828 126.601 223.636C127.685 221.928 128.815 219.881 128.358 217.797Z" fill="var(--fill-0, #A76926)"/>
<path id="Vector_20" d="M194.739 128.232C194.95 127.927 195.142 127.59 195.438 127.361C196.166 127.783 196.88 128.934 197.407 129.618C200.854 134.096 203.142 138.737 204.591 144.22C205.406 147.306 205.727 150.358 205.572 153.547C205.292 154.757 205.18 155.997 204.867 157.21C204.201 159.796 203.112 162.299 201.94 164.693C201.517 165.557 201.112 166.53 200.529 167.297L202.03 162.345C203.353 157.173 203.489 151.882 202.653 146.62C202.632 145.695 202.244 144.481 201.991 143.585C200.481 138.245 197.84 132.828 194.739 128.232Z" fill="var(--fill-0, #888789)"/>
<path id="Vector_21" d="M146.447 185.135L149.116 186.91L135.157 208.346C134.236 207.763 133.296 207.135 132.279 206.736C133.379 205.375 134.238 203.913 135.171 202.439L138.832 196.772C141.348 192.92 144.191 189.139 146.447 185.135Z" fill="var(--fill-0, #B0DF29)"/>
<path id="Vector_22" d="M162.342 154.754L159.641 154.76C160.87 152.436 162.311 150.219 163.684 147.978L169.39 138.669L173.539 132.037C174.602 130.333 175.659 128.543 176.951 127.001C177.879 126.889 178.869 127.011 179.802 127.064L162.342 154.754Z" fill="var(--fill-0, #F2F4E8)"/>
<path id="Vector_23" d="M166.191 38.4559C166.397 37.7524 166.814 37.1416 167.218 36.5372C168.703 34.3153 170.754 32.4997 173.094 31.2168C177.114 29.0118 182.284 28.558 186.68 29.8566C191.815 31.3741 196.164 34.9091 198.696 39.62C199.555 41.2191 200.287 42.9486 200.655 44.7335L200.54 44.8131C199.713 43.9756 199.109 42.6664 198.374 41.7038C195.514 37.9534 192.114 35.1046 187.734 33.2851C181.912 30.8674 174.913 31.6567 169.873 35.4817C169.092 36.0748 168.348 36.7309 167.616 37.3836C167.264 37.6972 166.797 38.241 166.352 38.4028L166.191 38.4559Z" fill="var(--fill-0, #888789)"/>
<path id="Vector_24" d="M80.6984 55.7597C79.5641 54.2802 78.8318 52.0786 78.9386 50.1937C79.0765 47.76 80.0072 45.6752 81.8832 44.0884C83.5053 42.7164 85.8707 41.8666 88.0016 42.054C90.226 42.2495 92.3396 43.1846 93.7788 44.923L93.5566 45.1431C92.9245 45.1614 92.4857 45.4831 91.9258 45.7223C88.9085 47.0125 86.4546 48.6462 84.1879 51.0407C83.3234 51.9541 82.5982 52.9376 81.9028 53.9826C81.5199 54.5576 81.1697 55.2577 80.6984 55.7597Z" fill="var(--fill-0, #F1EAC3)"/>
<path id="Vector_25" d="M149.116 186.91C150.21 187.581 151.376 188.081 152.561 188.566L142.078 204.181L139.279 208.42C138.807 209.122 138.333 209.932 137.757 210.552L135.157 208.346L149.116 186.91Z" fill="var(--fill-0, #3F7F0A)"/>
<path id="Vector_26" d="M124.952 216.374C126.451 216.326 127.294 216.833 128.358 217.797C128.815 219.881 127.685 221.928 126.601 223.636C124.574 226.828 122.009 229.901 118.144 230.77C117.415 230.934 116.753 231.008 116.007 230.979C115.82 230.644 115.913 230.283 115.93 229.905C116.527 227.266 118.028 225.081 119.519 222.875L122.938 217.472C123.532 216.672 123.978 216.519 124.952 216.374Z" fill="var(--fill-0, #EBAF4E)"/>
<path id="Vector_27" d="M119.519 222.875L122.938 217.472C123.532 216.672 123.978 216.519 124.952 216.374C125.096 217.065 123.093 219.839 122.623 220.557L119.793 224.62L119.605 224.656C119.228 224.016 119.389 223.578 119.519 222.875Z" fill="var(--fill-0, #F1EAC3)"/>
<path id="Vector_28" d="M89.1058 228.145C89.6447 227.616 90.1592 227.081 90.6342 226.494C90.9313 226.126 91.6837 224.936 92.0797 224.733C92.1784 224.683 92.6113 224.723 92.7584 224.721L95.4153 224.706L108.613 224.788C110.135 224.802 111.184 225.193 112.601 225.704C111.832 227.592 111.517 228.992 111.38 231.022L111.327 229.555C110.457 229.354 109.402 229.469 108.505 229.469L104.284 229.406L97.3023 229.021C94.5671 228.84 91.8018 228.663 89.1058 228.145Z" fill="var(--fill-0, #435F18)"/>
<path id="Vector_29" d="M182.594 128.193C183.692 129.381 184.337 130.233 184.884 131.779C184.61 132.04 184.317 132.312 184.103 132.626C183.29 133.817 182.61 135.177 181.85 136.414L176.202 145.543C175.27 147.07 173.907 148.692 173.266 150.33C171.437 151.545 169.316 152.626 167.25 153.371L182.594 128.193Z" fill="var(--fill-0, #3F7F0A)"/>
<path id="Vector_30" d="M194.503 183.045C194.991 182.688 195.476 182.292 196.001 181.992C195.878 184.099 195.73 186.248 195.393 188.332C194.733 192.425 193.579 196.341 192.273 200.267C197.365 194.363 204.808 186.942 212.993 186.341C216.201 186.105 219.564 186.907 222.04 189.045C224.38 191.066 225.66 194.23 225.854 197.275C225.967 199.047 225.788 200.793 225.566 202.548C225.291 202.481 225.223 201.134 225.182 200.825C224.766 197.674 223.884 194.259 221.764 191.8C219.94 189.685 217.326 188.323 214.527 188.137C210.688 187.881 207.29 189.594 204.129 191.578C201.068 193.499 198.256 195.721 195.494 198.045L191.552 201.297L192.794 194.557C193.215 192.496 193.712 190.335 193.804 188.233L193.811 188.051C194.193 186.445 194.329 184.687 194.503 183.045Z" fill="var(--fill-0, #888789)"/>
<path id="Vector_31" d="M179.802 127.064C180.806 127.315 181.752 127.556 182.594 128.193L167.25 153.371C165.595 154.083 164.12 154.487 162.342 154.754L179.802 127.064Z" fill="var(--fill-0, #B0DF29)"/>
<path id="Vector_32" d="M177.492 47.7734L174.033 44.532C175.81 42.8536 178.011 41.9315 180.474 41.9917C182.887 42.0506 185.3 43.2844 186.941 45.0235C188.576 46.7561 189.323 48.977 189.247 51.3382L189.133 52.3438L189.095 52.5764C188.977 53.2616 188.753 53.9248 188.437 54.5453C186.169 53.6311 184.108 52.087 182.156 50.6368C180.796 49.6258 179.151 48.2078 177.492 47.7734Z" fill="var(--fill-0, #F1EAC3)"/>
<path id="Vector_33" d="M66.8116 168.576C66.017 166.772 65.1824 165.022 64.5684 163.142C63.1328 158.747 62.6238 153.819 63.2336 149.241C64.3857 140.593 68.6692 132.689 74.7846 126.549C76.6252 124.702 78.6543 123.085 80.7206 121.5C81.1783 121.683 82.0308 122.973 82.3878 123.405C75.2564 128.984 69.4196 136.34 66.7642 145.094C66.3962 146.307 65.9071 147.628 65.732 148.881L65.7335 148.944C64.7817 153.659 64.6142 158.767 65.5799 163.49L66.3515 166.69C66.5247 167.325 66.7922 167.912 66.8116 168.576Z" fill="var(--fill-0, #888789)"/>
<path id="Vector_34" d="M182.038 123.924L179.158 123.627L204.312 83.0562L207.257 83.0617L182.038 123.924Z" fill="var(--fill-0, #F2F4E8)"/>
<path id="Vector_35" d="M192.696 52.7656L192.708 53.0624L192.952 53.13C196.532 52.104 198.947 49.5067 201.165 46.6906C201.725 52.7217 199.926 58.7718 196.041 63.4343C194.629 65.1295 192.936 66.4567 191.071 67.6119L187.62 60.6499C190.104 58.637 191.917 56.225 192.601 53.0635L192.696 52.7656Z" fill="var(--fill-0, #202122)"/>
<path id="Vector_36" d="M76.3933 55.6244C77.6289 57.435 78.4981 59.1147 80.2979 60.4806L80.4482 60.5936L76.8364 67.323C75.5459 66.6456 74.3266 65.9445 73.1876 65.029C69.2544 61.8674 66.8542 56.7961 66.3133 51.8412C65.8798 47.8712 66.6917 42.5874 69.272 39.408C68.5625 42.4458 68.5962 44.935 69.1508 48.0073C69.7876 50.82 71.869 53.2472 74.2627 54.766C74.8746 55.1541 75.6632 55.5859 76.3933 55.6244Z" fill="var(--fill-0, #202122)"/>
<path id="Vector_37" d="M207.257 83.0617C207.816 83.0617 210.356 82.8892 210.679 83.1719L210.844 83.3501C210.641 84.5462 209.602 85.7815 208.938 86.7962L206.279 90.9708L193.469 111.35L184.741 125.337C183.845 124.702 183.125 124.189 182.038 123.924L207.257 83.0617Z" fill="var(--fill-0, #B0DF29)"/>
<path id="Vector_38" d="M26.315 115.162L26.4051 115.245C27.0557 115.866 27.5637 116.619 28.1285 117.315C28.8872 118.251 29.7396 119.147 30.5842 120.007C34.3469 123.839 39.0649 127.286 44.2443 128.892C45.5692 129.303 47.0186 129.666 48.418 129.611C49.4782 129.569 50.5669 129.106 51.2851 128.308C51.6298 127.924 51.948 127.428 52.1629 126.963C52.6424 127.109 53.2045 127.495 53.6523 127.733L56.8929 129.447L61.8313 131.922C62.5387 132.268 63.4063 132.554 64.0554 132.985L62.4966 135.639C62.164 135.738 61.8457 135.801 61.5021 135.851C53.0206 137.077 44.1975 133.823 37.4912 128.715C33.6419 125.783 30.1942 121.773 27.6035 117.712C27.1133 116.944 26.4386 116.079 26.315 115.162Z" fill="var(--fill-0, #3F7F0A)"/>
<path id="Vector_39" d="M64.4969 79.4209L65.5836 81.4796C67.1178 84.2962 68.5046 87.2597 69.4408 90.3325C71.0077 95.4761 71.6568 100.978 72.6029 106.268C73.4239 110.856 74.3823 115.416 74.8168 120.063C74.6482 120.481 74.453 120.702 74.1318 121.014C73.4642 120.458 73.047 118.819 72.7188 117.985L70.5999 112.793L64.9822 101.029L61.5078 94.7618L58.5337 89.7682C59.7512 89.3974 60.9137 88.3913 61.785 87.4991C64.1274 85.1 64.5268 82.6393 64.4969 79.4209Z" fill="var(--fill-0, #3F7F0A)"/>
<path id="Vector_40" d="M64.4969 79.4209L65.5836 81.4796C65.8877 85.9932 65.8725 90.0833 62.7282 93.6584C62.3739 94.0615 61.9973 94.5221 61.5078 94.7618L58.5337 89.7682C59.7512 89.3974 60.9137 88.3913 61.785 87.4991C64.1274 85.1 64.5268 82.6393 64.4969 79.4209Z" fill="var(--fill-0, #91C01F)"/>
<path id="Vector_41" d="M110.814 147.001C112.448 145.535 114.077 144.183 116.069 143.216L123.699 144.445C130.199 145.213 136.692 145.27 143.18 144.42C145.737 144.084 148.519 143.621 150.933 142.696C153.027 144.014 154.804 145.306 156.545 147.074C154.838 147.967 152.831 148.529 150.98 149.048C140.922 151.867 130.011 151.608 119.838 149.539C117.959 149.157 116.07 148.676 114.242 148.101C113.145 147.755 112.041 147.259 110.92 147.022L110.814 147.001Z" fill="var(--fill-0, #B6A988)"/>
<path id="Vector_42" d="M166.191 38.4559L166.352 38.4028C166.797 38.241 167.264 37.6972 167.616 37.3836C168.348 36.7309 169.092 36.0748 169.873 35.4817C174.913 31.6567 181.912 30.8674 187.734 33.2851C192.114 35.1046 195.514 37.9534 198.374 41.7038C199.109 42.6664 199.713 43.9756 200.54 44.8131L200.655 44.7335C200.935 45.3446 201.03 46.035 201.165 46.6906C198.947 49.5067 196.532 52.104 192.952 53.13L192.708 53.0624L192.696 52.7656C192.864 51.3131 192.944 49.552 192.581 48.1264C191.823 45.1488 190.426 42.8504 187.967 40.9634C185.273 38.8956 181.6 38.0759 178.252 38.5509C175.485 38.9437 173.256 40.0176 171.261 41.9734C170.583 41.5369 166.298 38.7697 166.191 38.4559Z" fill="var(--fill-0, #343535)"/>
<path id="Vector_43" d="M210.844 83.3501L214.71 88.579L188.275 130.309C187.421 128.444 186.32 126.674 184.741 125.337L193.469 111.35L206.279 90.9708L208.938 86.7961C209.602 85.7815 210.641 84.5461 210.844 83.3501Z" fill="var(--fill-0, #3F7F0A)"/>
<path id="Vector_44" d="M84.4718 118.285L84.6896 118.397C85.3342 118.748 85.8998 119.539 86.4326 120.066C87.0547 120.682 87.7336 121.252 88.401 121.818C90.9512 123.98 93.6704 125.939 96.5436 127.649C105.231 132.82 115.098 135.741 125.154 136.627C128.019 136.879 130.871 136.897 133.745 136.894C141.113 136.884 148.139 136.169 155.288 134.315L170.23 128.934C169.822 129.648 167.766 133.246 167.262 133.509C166.848 133.724 166.323 133.848 165.885 134.034L162.805 135.341C147.829 141.57 130.907 142.306 115.224 138.515C105.83 136.245 96.721 131.704 89.8258 124.849C87.8551 122.89 85.9228 120.662 84.4718 118.285Z" fill="var(--fill-0, #605E53)"/>
<path id="Vector_45" d="M26.315 115.162L26.2323 114.824C27.3577 114.204 28.9662 113.933 30.2285 113.711C35.3789 112.803 40.8632 112.939 45.8958 114.403C48.7192 115.224 51.7449 116.358 54.1491 118.072C54.3538 119.971 54.4977 121.92 54.0591 123.793L53.9839 124.143C53.7827 124.511 53.6102 124.919 53.2938 125.197L40.4759 119.596C38.7799 118.902 37.0596 118.101 35.2878 117.637L52.1629 126.963C51.948 127.428 51.6298 127.924 51.2851 128.308C50.5669 129.106 49.4782 129.569 48.418 129.611C47.0186 129.666 45.5692 129.303 44.2443 128.892C39.0649 127.286 34.3469 123.839 30.5842 120.007C29.7396 119.147 28.8872 118.251 28.1285 117.315C27.5637 116.619 27.0557 115.866 26.4051 115.245L26.315 115.162Z" fill="var(--fill-0, #B0DF29)"/>
<path id="Vector_46" d="M127.411 235.819L130.855 230.862C131.101 230.495 131.601 229.498 131.898 229.287C132.118 229.131 133.524 229.269 133.869 229.244C134.501 229.199 135.164 228.897 135.752 228.677C136.595 228.36 137.363 228.385 138.245 228.323L141.903 228.005L148.409 226.945C150.581 226.493 152.739 225.882 154.86 225.231L157.544 224.384C158.19 224.169 158.862 223.863 159.548 223.823C160.757 223.753 176.66 223.846 176.807 223.913C177.079 224.035 177.604 224.932 177.849 225.223C178.735 226.281 179.828 227.285 180.864 228.197C175.671 228.56 170.374 228.448 165.167 228.451L161.581 228.453C161.357 228.453 160.665 228.407 160.497 228.5C159.936 228.808 159.279 229.605 158.772 230.04C157.98 230.722 156.995 231.314 156.062 231.787C153.146 233.263 149.979 234.078 146.782 234.682C140.366 235.894 133.919 236.005 127.411 235.819Z" fill="var(--fill-0, #435F18)"/>
<path id="Vector_47" d="M144.637 212.246C145.943 210.214 158.774 190.272 158.93 190.218C159.172 190.135 161.879 190.691 162.4 190.757C163.534 190.9 164.673 190.973 165.815 190.999C170.218 191.099 174.617 190.535 178.899 189.529C177.681 192.065 176.152 194.19 174.359 196.343C169.263 202.46 162.46 207.256 154.945 209.913C151.7 211.06 148.088 212.038 144.637 212.246Z" fill="var(--fill-0, #F2F4E8)"/>
<path id="Vector_48" d="M41.663 86.8273L41.7627 86.8833C43.1608 87.7143 44.1964 89.2888 45.5391 90.2817C47.4033 91.6602 49.0058 92.3365 51.3353 92.6825C52.8368 92.9055 55.1635 92.8426 56.4399 91.8837L56.6111 91.7468L56.7336 91.672L61.4838 102.051C62.5743 103.846 63.3689 105.901 64.2983 107.789L71.6829 123.33L70.2875 124.679C70.0294 124.601 70.1435 124.656 69.8862 124.47C68.2816 123.307 66.827 121.917 65.2894 120.667C62.779 118.626 60.2615 116.617 57.9294 114.37C52.4139 109.056 47.5771 102.538 44.516 95.5009C43.7138 93.6568 42.8036 91.6228 42.4667 89.6358C42.1522 88.6962 41.8606 87.8011 41.663 86.8273Z" fill="var(--fill-0, #3F7F0A)"/>
<path id="Vector_49" d="M41.663 86.8273L41.7627 86.8833C43.1608 87.7143 44.1964 89.2888 45.5391 90.2817C47.4033 91.6602 49.0058 92.3365 51.3353 92.6825C52.8368 92.9055 55.1635 92.8426 56.4399 91.8837L56.6111 91.7468L56.7336 91.672L61.4838 102.051L61.3076 102.205C60.6622 102.651 59.5182 102.759 58.76 102.678C55.415 102.321 52.6853 100.499 50.1636 98.3908C48.7281 97.1906 47.3732 95.938 46.1753 94.4964L42.6384 89.8376L42.4667 89.6358C42.1522 88.6962 41.8606 87.8011 41.663 86.8273Z" fill="var(--fill-0, #91C01F)"/>
<path id="Vector_50" d="M69.272 39.408C70.1474 37.4574 71.7604 35.645 73.321 34.2145C77.0299 30.8148 82.0569 28.9545 87.0867 29.2219C90.9737 29.4287 94.9141 30.8284 97.9181 33.3414C98.8988 34.1619 99.7428 35.1522 100.594 36.1031C101.369 36.6932 101.88 37.5993 102.319 38.452L96.4693 42.4806C93.8995 39.9482 91.2634 38.4064 87.5447 38.4478C86.6967 38.4575 85.8872 38.5313 85.0547 38.6854L84.799 38.7315C81.7481 39.3039 78.9027 41.1786 77.1793 43.751C75.5687 46.1546 74.805 49.8344 75.3753 52.6664C75.5815 53.6906 75.9419 54.6833 76.3933 55.6244C75.6632 55.5859 74.8746 55.1541 74.2627 54.766C71.869 53.2472 69.7876 50.82 69.1508 48.0073C68.5962 44.935 68.5625 42.4458 69.272 39.408Z" fill="var(--fill-0, #343535)"/>
<path id="Vector_51" d="M69.272 39.408C70.1474 37.4574 71.7604 35.645 73.321 34.2145C77.0299 30.8148 82.0569 28.9545 87.0867 29.2219C90.9737 29.4287 94.9141 30.8284 97.9181 33.3414C98.8988 34.1619 99.7428 35.1522 100.594 36.1031C100.181 36.2339 100.2 36.2046 99.8203 36.012L96.4598 34.1182C94.1588 32.9355 91.8361 32.2084 89.2793 31.8645C84.7388 31.2542 79.5693 32.6735 75.9639 35.4836C72.8774 37.889 70.8313 41.5225 69.798 45.2543C69.5722 46.0706 69.5533 47.3044 69.1508 48.0073C68.5962 44.935 68.5625 42.4458 69.272 39.408Z" fill="var(--fill-0, #888789)"/>
<path id="Vector_52" d="M117.226 211.904C116.96 212.796 117.005 214.39 117.19 215.29C117.278 215.72 117.687 216.786 117.628 217.159C117.584 217.443 117.052 218.108 116.869 218.392L114.753 221.822L105.744 217.749C96.0971 212.346 88.5185 203.89 83.9332 193.841C82.9758 191.743 82.0525 189.606 81.4225 187.384L87 189.133L86.7862 189.291C87.9817 191.476 89.9093 193.608 91.6364 195.385C92.9193 196.704 94.2015 198.051 95.5928 199.257C100.401 203.425 106.008 206.884 111.771 209.562C113.54 210.384 115.389 211.262 117.226 211.904Z" fill="var(--fill-0, #B6A988)"/>
<path id="Vector_53" d="M178.899 189.529C181.602 188.878 184.277 188.141 186.797 186.942C186.287 188.593 185.617 190.144 184.946 191.732C180.348 202.607 172.374 211.742 161.902 217.293C155.714 220.573 147.956 222.841 140.935 223.187C141.345 222.296 141.603 221.475 141.739 220.498L141.773 220.269C141.868 219.547 141.806 218.863 141.742 218.141C141.715 217.844 141.609 217.349 141.675 217.056C141.742 216.76 142.133 216.25 142.292 215.975C143.021 214.715 143.779 213.448 144.613 212.256L144.637 212.246C148.088 212.038 151.7 211.06 154.945 209.913C162.46 207.256 169.263 202.46 174.359 196.343C176.152 194.19 177.681 192.065 178.899 189.529Z" fill="var(--fill-0, #B6A988)"/>
<path id="Vector_54" d="M72.8774 182.611L74.9772 184.142C75.2572 184.346 75.7377 184.606 75.9599 184.857C76.1921 185.119 77.3269 189.396 77.5483 190.091L78.6588 193.134C80.7413 198.503 83.7382 203.491 87.3523 207.959C85.8644 209.46 84.1065 210.175 82.3909 211.321C82.3155 211.372 81.981 211.56 81.9368 211.632C81.8824 211.72 81.8829 212.231 81.8719 212.352L81.6343 214.815L81.0106 218.552C80.132 216.559 79.2974 214.565 78.2356 212.658C75.0895 207.008 70.6101 201.942 65.5802 197.903L63.7937 196.479C64.3543 197.666 64.9905 198.763 65.6665 199.887C66.0494 200.524 66.6956 201.335 66.8485 202.051C65.9746 201.249 65.1648 200.362 64.2574 199.599C62.0619 197.753 59.658 196.482 56.8689 195.827C54.6416 195.304 52.154 195.709 50.228 196.945C48.5823 198.002 47.3059 199.626 46.9016 201.567C46.2282 204.799 47.5951 208.118 49.0142 210.956C49.2173 211.932 49.7064 212.739 50.1495 213.619C51.5871 216.474 53.3938 219.05 55.3339 221.583C55.9864 222.434 57.0385 223.436 57.4274 224.404C57.2091 224.308 57.0385 224.216 56.8492 224.068C51.6643 220.033 47.219 214.734 44.5495 208.709C43.7316 206.863 42.9491 204.733 42.7026 202.721L42.9441 200.362C43.3391 196.719 44.7748 192.645 47.7574 190.302C49.9129 188.608 52.6275 188.166 55.3059 188.505C60.4693 189.158 64.9565 191.88 69.0312 194.972L71.5416 197.049C71.9541 197.405 72.305 197.84 72.8468 197.934C73.7968 198.344 77.4339 204.1 78.2249 205.344C77.3753 202.14 75.9382 199.246 74.5236 196.264C74.1352 195.445 73.666 194.644 73.3221 193.808C73.2197 193.559 73.2425 193.409 73.2909 193.152C73.4836 192.761 73.2734 191.789 73.2386 191.348L72.9253 186.238L72.8774 182.611Z" fill="var(--fill-0, #343535)"/>
<path id="Vector_55" d="M193.811 188.051L193.804 188.233C193.712 190.335 193.215 192.496 192.794 194.557L191.552 201.297L195.494 198.045C198.256 195.721 201.068 193.499 204.129 191.578C207.29 189.594 210.688 187.881 214.527 188.137C217.326 188.323 219.94 189.685 221.764 191.8C223.884 194.259 224.766 197.674 225.182 200.825C225.223 201.134 225.291 202.481 225.566 202.548C225.419 203.733 225.003 204.938 224.642 206.076C223.828 208.641 222.676 211.019 221.366 213.365C219.07 217.479 216.318 221.303 212.58 224.231C210.745 225.669 208.303 227.434 205.96 227.871C210.409 224.544 214.743 220.541 217.059 215.37C218.34 213.468 219.388 211.38 220.194 209.234C221.265 206.378 221.863 202.846 220.511 199.987C219.614 198.091 217.994 196.837 216.047 196.161C213.453 195.259 210.742 195.791 208.328 196.96C205.274 198.438 202.681 200.966 200.563 203.575C197.903 206.851 195.786 210.429 194.379 214.413C193.525 217.093 192.725 219.856 192.839 222.692C192.647 222.51 192.755 221.012 192.706 220.628C192.268 217.172 192.311 213.407 192.884 209.975C191.608 211.602 190.764 213.809 190.078 215.741C189.17 215.284 188.278 215.017 187.391 214.465L187.266 214.391C185.213 213.127 184.314 210.673 183.781 208.456C184.425 207.133 185.281 205.919 186.002 204.634L189.136 198.502L191.978 192.095C192.535 190.777 193.021 189.245 193.811 188.051Z" fill="var(--fill-0, #343535)"/>
<path id="Vector_56" d="M41.663 86.8273C41.1974 85.0738 40.9938 83.2404 40.7891 81.4401C39.9378 73.9468 40.5646 66.1376 43.2354 59.0445C46.8634 61.5233 50.5892 63.9717 53.9546 66.8037C55.7354 68.3023 57.3829 69.9867 58.9621 71.6939C61.0587 73.9602 63.1535 76.6252 64.4969 79.4209C64.5268 82.6393 64.1274 85.1 61.785 87.4991C60.9137 88.3913 59.7512 89.3974 58.5337 89.7682L48.9762 73.8165C49.2251 74.7783 49.7077 75.7118 50.1136 76.6187L52.1137 81.0402L56.7336 91.672L56.6111 91.7468L56.4399 91.8837C55.1635 92.8426 52.8368 92.9054 51.3353 92.6825C49.0058 92.3365 47.4033 91.6602 45.5391 90.2817C44.1964 89.2888 43.1608 87.7143 41.7627 86.8833L41.663 86.8273Z" fill="var(--fill-0, #B0DF29)"/>
<path id="Vector_57" d="M194.379 214.413C195.786 210.429 197.903 206.851 200.563 203.575C202.681 200.966 205.274 198.438 208.328 196.96C210.742 195.791 213.453 195.259 216.047 196.161C217.994 196.837 219.614 198.091 220.511 199.987C221.863 202.846 221.265 206.378 220.194 209.234C219.388 211.38 218.34 213.468 217.059 215.37C214.743 220.541 210.409 224.544 205.96 227.871C204.692 228.391 203.55 228.83 202.191 229.072C200.174 229.432 197.168 229.768 195.438 228.45C193.648 227.087 193.07 224.821 192.839 222.692C192.725 219.856 193.525 217.093 194.379 214.413Z" fill="var(--fill-0, #F2F4E8)"/>
<path id="Vector_58" d="M194.379 214.413C194.924 217.088 196.687 220.079 198.962 221.633C200.078 222.394 201.373 222.826 202.701 223.014L202.918 223.046C206.226 223.481 210.064 221.41 212.56 219.43C213.57 218.629 214.527 217.74 215.46 216.851C215.968 216.367 216.463 215.732 217.059 215.37C214.743 220.541 210.409 224.544 205.96 227.871C204.692 228.391 203.55 228.83 202.191 229.072C200.174 229.432 197.168 229.768 195.438 228.45C193.648 227.087 193.07 224.821 192.839 222.692C192.725 219.856 193.525 217.093 194.379 214.413Z" fill="var(--fill-0, #B6A988)"/>
<path id="Vector_59" d="M49.0142 210.956C47.5951 208.118 46.2282 204.799 46.9016 201.567C47.3059 199.626 48.5823 198.002 50.228 196.945C52.154 195.709 54.6416 195.304 56.8689 195.827C59.658 196.482 62.0619 197.753 64.2574 199.599C65.1648 200.362 65.9746 201.249 66.8485 202.051C69.2356 205.267 71.4406 208.578 72.846 212.357C74.6736 216.188 76.0911 221.483 74.6417 225.641C74.1666 227.003 73.3572 228.305 72.0179 228.95C69.6198 230.105 66.7022 229.423 64.3381 228.523C61.857 227.579 59.4526 226.115 57.4274 224.404C57.0385 223.436 55.9864 222.434 55.3339 221.583C53.3938 219.05 51.5871 216.474 50.1495 213.619C49.7064 212.739 49.2173 211.932 49.0142 210.956Z" fill="var(--fill-0, #F2F4E8)"/>
<path id="Vector_60" d="M49.0142 210.956C51.7973 215.18 55.1334 218.724 59.6611 221.093C61.0059 221.797 62.4121 222.426 63.9044 222.74C66.0667 223.193 68.2918 223.122 70.1938 221.869C71.7227 220.862 72.5893 219.289 72.9305 217.514C73.2763 215.715 72.9091 214.139 72.846 212.357C74.6736 216.188 76.0911 221.483 74.6417 225.641C74.1666 227.003 73.3571 228.305 72.0179 228.95C69.6198 230.105 66.7022 229.423 64.3381 228.523C61.857 227.579 59.4526 226.115 57.4274 224.404C57.0385 223.436 55.9864 222.434 55.3339 221.583C53.3938 219.05 51.5871 216.474 50.1495 213.619C49.7064 212.739 49.2173 211.932 49.0142 210.956Z" fill="var(--fill-0, #B6A988)"/>
<path id="Vector_61" d="M76.4009 84.8966C76.4556 86.7606 77.1908 88.7674 77.7184 90.556C79.5201 96.664 82.4076 102.723 86.2489 107.819C88.2298 110.447 90.5047 112.821 92.8994 115.074C95.8194 117.82 99.3102 120.084 102.841 121.956C112.626 127.147 123.766 129.58 134.831 129.23C146.599 128.858 158.573 126.606 169.215 121.439C171.38 120.387 173.464 119.202 175.512 117.939C176.502 117.329 177.651 116.308 178.709 115.931C178.234 116.899 177.583 117.775 177.001 118.68L173.534 123.943C172.479 125.556 171.548 127.53 170.23 128.934L155.288 134.315C148.139 136.169 141.113 136.884 133.745 136.894C130.871 136.897 128.019 136.879 125.154 136.627C115.098 135.741 105.231 132.82 96.5436 127.649C93.6704 125.939 90.9512 123.98 88.401 121.818C87.7336 121.252 87.0547 120.682 86.4326 120.066C85.8998 119.539 85.3342 118.748 84.6896 118.397L84.4718 118.285C83.5035 116.729 82.4273 115.29 81.5437 113.674C77.8613 106.936 75.7417 99.1631 75.8149 91.461C75.8361 89.2437 76.1159 87.0882 76.4009 84.8966Z" fill="var(--fill-0, #B6A988)"/>
<path id="Vector_62" d="M183.492 147.335C183.829 146.165 184.49 144.999 185.094 143.94L188.513 138.376L194.739 128.232C197.84 132.828 200.481 138.245 201.991 143.585C202.244 144.481 202.632 145.695 202.653 146.62L202.441 146.693C202.291 147.199 202.255 147.724 202.131 148.237C201.787 149.661 201.41 151.126 200.928 152.51C198.143 160.512 192.677 167.533 185.188 171.598C178.547 175.203 170.958 177.082 163.409 177.065C160.564 177.058 157.746 176.818 155.011 175.991C152.111 175.113 149.55 173.572 146.847 172.258C145.928 171.811 144.831 171.483 143.982 170.927C144.075 170.556 144.159 170.189 144.307 169.836C144.653 168.029 145.593 166.312 146.743 164.891C148.999 162.099 152.228 160.607 155.63 159.699C156.606 159.439 157.71 159.131 158.719 159.053C160.223 158.935 161.745 159.096 163.248 158.923C168.194 158.355 172.978 155.956 177.023 153.146C179.38 151.508 181.692 149.585 183.492 147.335Z" fill="var(--fill-0, #343535)"/>
<path id="Vector_63" d="M183.492 147.335C185.966 145.158 187.464 142.029 189.635 139.602C189.642 140.288 189.694 141.037 189.583 141.713C188.93 145.68 185.867 149.594 183.13 152.391C178.321 157.307 172.051 160.149 165.291 161.12C162.595 161.508 159.883 161.525 157.184 161.836C151.411 162.502 147.285 164.746 144.411 169.911L144.307 169.836C144.653 168.029 145.593 166.312 146.743 164.891C148.999 162.099 152.228 160.607 155.63 159.699C156.606 159.439 157.71 159.131 158.719 159.053C160.223 158.935 161.745 159.096 163.248 158.923C168.194 158.355 172.978 155.956 177.023 153.146C179.38 151.508 181.692 149.585 183.492 147.335Z" fill="var(--fill-0, #888789)"/>
<path id="Vector_64" d="M87 189.133L94.0921 190.415C97.5769 190.839 101.099 190.938 104.602 190.764C110.532 190.47 116.544 189.312 121.317 185.552C125.087 182.58 127.411 178.393 128.021 173.65C128.522 169.756 127.596 165.802 125.277 162.618C122.618 158.968 118.253 156.618 113.911 155.641C111.527 155.104 109.107 154.908 106.698 154.533C107.425 151.746 108.78 149.065 110.814 147.001L110.92 147.022C112.041 147.259 113.145 147.755 114.242 148.101C116.07 148.676 117.959 149.157 119.838 149.539C130.011 151.608 140.922 151.867 150.98 149.048C152.831 148.529 154.838 147.967 156.545 147.074C156.878 147.492 158.056 148.858 157.901 149.401L154.259 155.459C148.961 156.887 144.375 159.695 141.597 164.544C139.746 167.776 138.96 171.896 139.968 175.527C140.396 177.069 141.012 178.471 141.783 179.869L125.366 205.042C122.479 205.669 120.072 206.634 118.399 209.233C117.866 210.061 117.51 210.965 117.226 211.904C115.389 211.262 113.54 210.384 111.771 209.562C106.008 206.884 100.401 203.425 95.5928 199.257C94.2015 198.051 92.9193 196.704 91.6364 195.385C89.9093 193.608 87.9817 191.476 86.7862 189.291L87 189.133Z" fill="var(--fill-0, #F2F4E8)"/>
<path id="Vector_65" d="M82.3878 123.405L86.1795 127.688C86.8741 129.227 88.0304 130.713 89.0498 132.053C94.2965 138.949 101.096 143.307 109.086 146.453C108.036 147.938 106.826 149.507 106.21 151.232C105.846 152.251 105.701 153.3 105.575 154.37C103.914 153.871 102.251 153.463 100.631 152.834C95.8281 150.969 91.0169 147.788 88.2953 143.316C87.6114 142.192 87.101 140.169 86.04 139.439C85.5883 139.128 85.1295 139.061 84.6027 139.184C83.9416 139.338 83.3969 139.687 83.0551 140.283C82.9245 140.511 82.796 140.697 82.639 140.908C83.9455 146.546 88.0749 151.004 92.9047 153.994C96.3478 156.125 99.9049 157.529 103.847 158.433C106.269 158.989 108.751 159.156 111.189 159.605C116.123 160.513 120.74 162.726 122.964 167.472C123.426 168.135 123.677 168.973 123.973 169.722C121.336 171.46 119.17 173.457 116.187 174.679C114.231 175.48 112.175 175.816 110.09 176.064C105.206 176.648 100.172 176.35 95.3284 175.553C91.6421 174.947 88.0644 174.093 84.6111 172.64C80.9781 171.112 77.146 168.906 74.2784 166.19C71.3225 163.392 68.8857 159.49 67.5339 155.655C67.0544 154.295 66.6069 152.869 66.263 151.47C66.0876 150.755 66.1028 149.732 65.8126 149.102L65.7335 148.944L65.732 148.881C65.9071 147.628 66.3962 146.307 66.7642 145.094C69.4196 136.34 75.2564 128.984 82.3878 123.405Z" fill="var(--fill-0, #343535)"/>
<path id="Vector_66" d="M122.964 167.472C122.467 167.427 121.708 166.592 121.291 166.252C120.111 165.289 118.836 164.557 117.435 163.96C114.271 162.612 110.839 162.094 107.471 161.525C101.435 160.503 95.4993 158.95 90.4351 155.368C86.39 152.506 82.3857 148.141 81.5377 143.085C81.238 141.298 81.2351 140.096 81.7541 138.337C82.2025 138.851 82.4479 140.234 82.639 140.908C83.9455 146.545 88.0749 151.004 92.9047 153.994C96.3478 156.125 99.9049 157.529 103.847 158.433C106.269 158.989 108.751 159.156 111.189 159.605C116.123 160.513 120.74 162.726 122.964 167.472Z" fill="var(--fill-0, #888789)"/>
<path id="Vector_67" d="M76.4009 84.8966C76.6967 82.0072 77.5156 79.234 78.4431 76.4907C80.3573 70.8284 82.9436 65.6487 86.3442 60.7345C89.0401 56.8385 92.0784 53.0925 95.5224 49.8297C103.89 41.9035 114.286 36.7613 125.607 34.7241C139.305 32.2592 153.979 36.029 165.325 43.913C175.91 51.2689 184.121 61.4453 188.742 73.5257C189.813 76.3266 190.782 79.299 191.314 82.253C190.692 83.9343 190.365 85.8068 189.897 87.5447C188.903 91.2438 187.841 94.9827 186.527 98.5827L183.234 106.943L181.669 110.419C181.359 111.069 180.848 111.836 180.767 112.546C180.144 113.706 179.552 114.911 178.709 115.931C177.651 116.308 176.502 117.329 175.512 117.939C173.464 119.202 171.38 120.387 169.215 121.439C158.573 126.606 146.599 128.858 134.831 129.23C123.766 129.58 112.626 127.147 102.841 121.956C99.3102 120.084 95.8194 117.82 92.8994 115.074C90.5047 112.821 88.2298 110.447 86.2489 107.819C82.4076 102.723 79.5201 96.664 77.7184 90.556C77.1908 88.7674 76.4556 86.7606 76.4009 84.8966Z" fill="var(--fill-0, #F2F4E8)"/>
<path id="Vector_68" d="M132.86 100.162C135.973 100.055 139.554 100.312 142.376 101.745C143.518 102.325 144.713 103.195 145.073 104.491C145.406 105.692 145.025 106.812 144.422 107.847C142.328 111.44 138.766 113.161 134.907 114.213L134.973 114.333C135.907 116.002 137.432 118.13 139.386 118.624C140.851 118.995 142.368 118.657 143.627 117.858C145.173 116.877 146.559 114.709 146.914 112.93C146.963 112.685 146.985 112.541 147.133 112.328C147.448 112.35 147.699 112.371 147.977 112.542C148.508 112.871 148.798 113.733 148.902 114.306C149.184 115.865 148.366 117.733 147.457 118.978C146.169 120.741 144.204 121.985 142.036 122.309C139.5 122.688 137.312 121.862 135.282 120.4L134.172 119.304L132.701 120.63C131.149 121.925 129.464 122.425 127.452 122.216C125.011 121.961 122.512 120.688 120.976 118.753C119.924 117.427 119.261 115.803 119.492 114.088C119.565 113.547 119.857 112.932 120.325 112.626C120.594 112.451 120.822 112.43 121.11 112.534C121.206 112.805 121.29 113.051 121.332 113.337L121.451 114.044C121.863 115.638 123.068 117.052 124.472 117.866C125.678 118.566 127.58 119.049 128.955 118.621C130.944 118.001 132.148 115.887 133.011 114.138C130.805 113.554 128.907 112.721 127.055 111.357C125.34 110.094 123.431 108.217 123.156 105.996C123.027 104.957 123.234 103.892 123.91 103.068C125.81 100.752 130.099 100.358 132.86 100.162Z" fill="var(--fill-0, #040404)"/>
<path id="Vector_69" d="M129.828 102.511C130.657 102.434 131.637 102.429 132.441 102.657C132.94 102.799 133.085 102.924 133.331 103.379C133.3 103.643 133.276 103.873 133.15 104.112C132.713 104.949 130.671 105.5 129.806 105.763C128.885 105.902 127.466 106.103 126.667 105.544C126.415 105.368 126.212 105.102 126.173 104.797C126.122 104.405 126.273 103.991 126.527 103.693C127.324 102.764 128.693 102.646 129.828 102.511Z" fill="var(--fill-0, #F2F4E8)"/>
<path id="Vector_70" d="M108.227 66.3967C109.236 66.2538 110.568 66.2879 111.577 66.4103C113.633 66.6603 115.466 67.1201 117.33 68.0398C121.361 70.0283 124.243 73.571 125.654 77.809C127.169 82.36 126.482 86.8812 124.348 91.0868C121.073 97.5415 114.543 104.112 107.558 106.376L105.654 106.837C102.471 107.321 99.1396 106.587 96.5522 104.636C92.4773 101.565 90.3689 96.1052 89.7583 91.2048C89.009 85.1887 90.9378 78.686 94.6522 73.9295C98.0561 69.5706 102.786 67.0393 108.227 66.3967Z" fill="var(--fill-0, #202122)"/>
<path id="Vector_71" d="M111.149 76.9775C113.201 76.7427 115.23 77.0709 117.004 78.1647C119.155 79.4908 120.895 82.1276 121.412 84.5739C121.996 87.3371 121.708 90.3338 120.106 92.7147C118.567 94.9997 116.478 96.0929 113.836 96.6281C111.546 96.7642 109.45 96.3874 107.522 95.0652C105.31 93.5482 103.794 91.0721 103.296 88.4502C102.793 85.799 103.495 82.9976 105.043 80.8057C106.553 78.668 108.589 77.4366 111.149 76.9775Z" fill="var(--fill-0, #F2F4E8)"/>
<path id="Vector_72" d="M112.378 79.6062C113.852 79.4801 115.411 79.8145 116.699 80.5439C118.498 81.5628 119.966 83.5974 120.468 85.5839C120.991 87.652 120.593 89.909 119.479 91.7188C118.274 93.6759 116.562 94.6268 114.372 95.14C112.584 95.3666 111.01 95.068 109.497 94.0523C107.71 92.8523 106.358 90.8499 105.973 88.7242C105.571 86.5049 106.205 84.2928 107.5 82.4757C108.757 80.7114 110.262 79.9462 112.378 79.6062Z" fill="var(--fill-0, #040404)"/>
<path id="Vector_73" d="M112.277 81.4131C112.679 81.3579 113.122 81.3291 113.521 81.4092C114.161 81.5379 114.746 81.9855 115.1 82.5238C115.672 83.392 115.749 84.5252 115.485 85.5166C115.234 86.4643 114.752 86.882 113.941 87.3769L113.757 87.3963C113.382 87.4376 113.028 87.4866 112.657 87.3908C111.972 87.2138 111.39 86.7637 111.036 86.1463C110.512 85.2318 110.377 83.8288 110.726 82.8295C110.98 82.1012 111.614 81.7206 112.277 81.4131Z" fill="var(--fill-0, #F2F4E8)"/>
<path id="Vector_74" d="M157.637 66.5323L158.512 66.5012C163.461 66.4459 168.442 68.5049 171.974 71.9598C176.247 76.139 178.617 81.7329 178.671 87.7088C178.723 93.269 177.074 98.9569 173.073 102.979C170.216 105.85 166.801 107.026 162.819 107.045C158.627 106.688 154.924 104.591 151.768 101.892C146.996 97.8098 142.196 91.2954 141.749 84.849C141.426 80.1747 142.849 75.6032 145.955 72.0619C149.144 68.4256 152.878 66.8676 157.637 66.5323Z" fill="var(--fill-0, #202122)"/>
<path id="Vector_75" d="M155.395 76.8629C157.303 76.6891 159.342 77.351 160.942 78.3675C163.204 79.8043 164.444 82.07 164.975 84.648C165.503 87.2029 164.84 90.0268 163.377 92.1703C161.644 94.7076 159.524 96.0045 156.534 96.5679C154.264 96.8124 151.795 96.2889 149.961 94.8793C148.03 93.3943 146.882 91.2072 146.582 88.8056C146.228 85.9636 146.741 82.8465 148.529 80.5369C150.309 78.2374 152.565 77.2076 155.395 76.8629Z" fill="var(--fill-0, #F2F4E8)"/>
<path id="Vector_76" d="M154.067 79.7219C155.846 79.5727 157.282 79.6871 158.863 80.6002C160.511 81.5518 161.762 83.4218 162.251 85.2342C162.818 87.3327 162.561 89.3903 161.452 91.2705C160.216 93.3658 158.312 94.5032 156.01 95.0958C154.148 95.2442 152.445 94.9633 150.859 93.9374C149.253 92.8984 148.051 91.0538 147.653 89.1898C147.203 87.0869 147.6 84.7997 148.788 83.0051C150.05 81.098 151.876 80.1681 154.067 79.7219Z" fill="var(--fill-0, #040404)"/>
<path id="Vector_77" d="M156.396 81.5542C156.756 81.584 157.154 81.6633 157.489 81.7971C158.183 82.074 158.686 82.7222 158.965 83.3941C159.296 84.1944 159.293 85.1112 158.941 85.9092C158.531 86.8375 157.909 87.1487 157.015 87.5044C156.591 87.5415 156.101 87.536 155.704 87.3609C155.079 87.0848 154.632 86.4962 154.404 85.8647C154.063 84.9196 154.089 83.8547 154.572 82.9648C155.02 82.1394 155.508 81.8112 156.396 81.5542Z" fill="var(--fill-0, #F2F4E8)"/>
</g>
</svg>
