<svg width="121" height="73" viewBox="0 0 121 73" fill="none" xmlns="http://www.w3.org/2000/svg">
<path opacity="0.5" fill-rule="evenodd" clip-rule="evenodd" d="M15.8918 0.185422C15.7175 0.21911 15.1827 0.32376 14.7034 0.417961C9.83879 1.37292 4.10335 6.02588 1.6893 10.9758C-2.33229 19.2218 1.01238 29.325 9.74562 35.311L10.2544 35.6599L11.344 34.2109C16.4188 27.4608 22.245 22.0455 30.5812 16.3298C33.2413 14.5058 33.6154 14.1297 33.973 12.9188C35.7159 7.01765 23.8296 -1.35314 15.8918 0.185422ZM100.44 0.26465C95.1726 1.12478 88.5932 5.75404 87.2741 9.52817C86.1082 12.8636 86.6137 13.7449 91.7156 17.272C99.007 22.3128 104.494 27.4836 109.522 34.0518L110.748 35.6535L111.252 35.3079C117.035 31.3451 120.658 25.3422 120.979 19.1931C121.54 8.43097 110.836 -1.43331 100.44 0.26465ZM36.6493 30.2823C20.6069 32.4845 8.97727 59.2374 22.7511 62.2538C27.9828 63.3993 32.1695 60.5931 37.6956 52.2366C38.2136 51.4534 39.5991 49.6751 40.7747 48.2849C45.722 42.4343 47.0953 38.6909 45.697 34.8673C44.6434 31.9865 40.2933 29.782 36.6493 30.2823ZM81.3336 30.4068C73.5088 31.8847 72.6766 39.5501 79.4892 47.3953C81.8009 50.0572 82.3446 50.762 84.0221 53.2708C90.2123 62.5284 96.9917 65.1066 102.051 60.1274C110.738 51.5771 94.2767 27.9622 81.3336 30.4068ZM36.6229 37.5322C36.3469 37.6118 35.9396 37.8889 35.7181 38.1483C33.9906 40.1689 36.8498 42.7749 38.7462 40.9082C40.2843 39.3944 38.7311 36.9248 36.6229 37.5322ZM83.0955 37.5224C82.027 37.841 81.3747 39.033 81.7144 40.0463C82.3064 41.8115 84.6867 42.0752 85.5601 40.4723C86.439 38.8591 84.8781 36.9909 83.0955 37.5224ZM52.576 55.9396C46.5368 56.9574 49.6312 62.8035 57.7635 65.7401L58.7538 66.0978V66.7514C58.7538 68.8982 55.926 69.3931 50.2286 68.2433L47.0117 67.594L46.6263 67.8427C44.1809 69.4197 50.5127 72.958 55.8322 72.9871L58.2189 73L59.3578 72.4437L60.4968 71.8872L61.6358 72.4437L62.7748 73L65.1614 72.9871C70.4809 72.958 76.8127 69.4197 74.3673 67.8427L73.9819 67.594L70.765 68.2433C65.0676 69.3931 62.2398 68.8982 62.2398 66.7514V66.0978L63.2301 65.7401C68.7469 63.7479 71.6072 61.0705 71.4532 58.0425C71.421 57.4102 70.3811 56.4735 69.3303 56.1305C68.3741 55.8183 54.2507 55.6575 52.576 55.9396Z" fill="#9ca3af"/>
</svg>
