<svg preserveAspectRatio="none" width="100%" height="100%" overflow="visible" style="display: block;" viewBox="0 0 26 26" fill="none" xmlns="http://www.w3.org/2000/svg">
<g id="slack">
<path id="vector" d="M23.5002 11.9998C24.8808 11.9998 26 10.8806 26 9.5C26 8.11941 24.8807 7.00021 23.5001 7.00021C22.1194 7.00021 21 8.1195 21 9.50021V11.9998H23.5002ZM16.5 11.9998C17.8807 11.9998 19 10.8805 19 9.49978V2.50021C19 1.1195 17.8807 0.000212669 16.5 0.000212669C15.1193 0.000212669 14 1.1195 14 2.50021V9.49978C14 10.8805 15.1193 11.9998 16.5 11.9998Z" fill="var(--fill-0, #2EB67D)"/>
<path id="vector_2" d="M2.49979 14.0002C1.11919 14.0002 0 15.1194 0 16.5C0 17.8806 1.1193 18.9998 2.49989 18.9998C3.8806 18.9998 5 17.8805 5 16.4998V14.0002H2.49979ZM9.5 14.0002C8.11929 14.0002 7 15.1195 7 16.5002V23.4998C7 24.8805 8.11929 25.9998 9.5 25.9998C10.8807 25.9998 12 24.8805 12 23.4998V16.5002C12 15.1195 10.8807 14.0002 9.5 14.0002Z" fill="var(--fill-0, #E01E5A)"/>
<path id="vector_3" d="M14.0002 23.5002C14.0002 24.8808 15.1194 26 16.5 26C17.8806 26 18.9998 24.8807 18.9998 23.5001C18.9998 22.1194 17.8805 21 16.4998 21L14.0002 21L14.0002 23.5002ZM14.0002 16.5C14.0002 17.8807 15.1195 19 16.5002 19L23.4998 19C24.8805 19 25.9998 17.8807 25.9998 16.5C25.9998 15.1193 24.8805 14 23.4998 14L16.5002 14C15.1195 14 14.0002 15.1193 14.0002 16.5Z" fill="var(--fill-0, #ECB22E)"/>
<path id="vector_4" d="M11.9998 2.49979C11.9998 1.11919 10.8806 4.75597e-07 9.49997 4.15249e-07C8.11938 3.54901e-07 7.00019 1.1193 7.00019 2.49989C7.00019 3.8806 8.11947 5 9.50018 5L11.9998 5L11.9998 2.49979ZM11.9998 9.5C11.9998 8.11929 10.8805 7 9.49975 7L2.50018 7C1.11947 7 0.000183275 8.11929 0.000183215 9.5C0.000183154 10.8807 1.11947 12 2.50018 12L9.49975 12C10.8805 12 11.9998 10.8807 11.9998 9.5Z" fill="var(--fill-0, #36C5F0)"/>
</g>
</svg>
